<svg width="201" height="25" viewBox="0 0 201 25" fill="none" xmlns="http://www.w3.org/2000/svg">
<path d="M4.12739 24.5V0.500003L0 0.5V24.5L4.12739 24.5Z" fill="#F3BD00"/>
<path d="M8.88335 10.0542V0.500003L24.068 8.82493C23.7245 9.18068 23.3659 9.59863 23.06 10.0542H8.88335Z" fill="#F3BD00"/>
<path d="M24.1191 16.1471C23.8441 15.8227 23.5226 15.4101 23.2254 14.9459H8.88335V24.5L24.1191 16.1471Z" fill="#F3BD00"/>
<path d="M25.8224 9.74884L30.9257 12.5298L25.8224 15.3107C25.8224 15.3107 24.1213 13.8873 24.1213 12.5298C24.1213 11.1723 25.8224 9.74884 25.8224 9.74884Z" fill="#F3BD00"/>
<path d="M42.9683 18.6531C41.8528 18.6531 40.9825 18.3406 40.3575 17.7156C39.7404 17.0906 39.4319 16.2283 39.4319 15.1286V8.63723H37.4857V6.57234H39.4675V3.46313L41.8765 1.70679V6.57234H44.962V8.63723H41.8765V14.7132C41.8765 15.3461 42.0071 15.8011 42.2682 16.078C42.5292 16.3469 42.905 16.4814 43.3955 16.4814C43.8702 16.4814 44.3884 16.3549 44.9501 16.1017L44.962 18.3209C44.7247 18.4079 44.424 18.483 44.0601 18.5463C43.6962 18.6175 43.3322 18.6531 42.9683 18.6531Z" fill="#F5F5F5"/>
<path d="M52.0116 18.6531C50.7537 18.6531 49.6856 18.3802 48.8075 17.8343C47.9293 17.2805 47.2687 16.5408 46.8256 15.6151C46.3826 14.6895 46.1611 13.6689 46.1611 12.5534C46.1611 11.4537 46.3707 10.4331 46.79 9.49167C47.2173 8.54229 47.8541 7.78279 48.7007 7.21316C49.5551 6.63563 50.5915 6.34686 51.8099 6.34686C53.0836 6.34686 54.12 6.63958 54.9191 7.22503C55.726 7.80257 56.3036 8.53438 56.6517 9.42046C57.0077 10.3065 57.1857 11.2203 57.1857 12.1618C57.1857 12.3833 57.1738 12.6009 57.1501 12.8145C57.1343 13.0281 57.1145 13.1784 57.0908 13.2654H48.7481C48.8589 14.2623 49.1833 15.0376 49.7212 15.5914C50.2671 16.1452 51.0345 16.4221 52.0235 16.4221C52.6326 16.4221 53.1825 16.3193 53.673 16.1136C54.1714 15.9079 54.6422 15.5637 55.0852 15.0811L56.7703 16.5645C56.1137 17.2765 55.3977 17.8027 54.6224 18.1429C53.855 18.483 52.9847 18.6531 52.0116 18.6531ZM54.7648 11.4854C54.7806 11.2243 54.7569 10.9751 54.6936 10.7377C54.567 10.0415 54.2505 9.4798 53.7442 9.05258C53.2379 8.62536 52.5852 8.41175 51.7861 8.41175C50.9 8.41175 50.2038 8.68865 49.6975 9.24245C49.1991 9.79626 48.8826 10.5439 48.7481 11.4854H54.7648Z" fill="#F5F5F5"/>
<path d="M63.9979 18.6531C62.8112 18.6531 61.7946 18.3723 60.9481 17.8106C60.1015 17.2489 59.4647 16.5012 59.0375 15.5677C58.6102 14.6341 58.3966 13.6175 58.3966 12.5178C58.3966 11.4418 58.6063 10.4331 59.0256 9.49167C59.4449 8.5502 60.0739 7.7907 60.9125 7.21316C61.759 6.63563 62.7796 6.34686 63.9742 6.34686C65.1372 6.34686 66.1538 6.63563 67.0241 7.21316C67.8943 7.7907 68.547 8.64118 68.9822 9.76461L66.6562 10.6665C66.4505 10.0336 66.1103 9.52727 65.6356 9.14752C65.1609 8.76777 64.6071 8.57789 63.9742 8.57789C63.278 8.57789 62.6965 8.76381 62.2297 9.13565C61.7709 9.49958 61.4307 9.98218 61.2091 10.5834C60.9955 11.1768 60.8887 11.8216 60.8887 12.5178C60.8887 13.2219 60.9955 13.8707 61.2091 14.464C61.4307 15.0574 61.7709 15.5321 62.2297 15.8881C62.6965 16.2441 63.278 16.4221 63.9742 16.4221C64.615 16.4221 65.1688 16.2362 65.6356 15.8643C66.1103 15.4925 66.4426 14.9941 66.6325 14.3691L68.8635 15.2117C68.4758 16.2955 67.8548 17.1421 67.0003 17.7512C66.1459 18.3525 65.1451 18.6531 63.9979 18.6531Z" fill="#F5F5F5"/>
<path d="M70.917 1.65932H73.4091V8.16254C73.8284 7.56127 74.3466 7.11032 74.9637 6.80968C75.5808 6.50113 76.2335 6.34686 76.9218 6.34686C77.8712 6.34686 78.6663 6.56838 79.3071 7.01142C79.9558 7.45446 80.4345 8.03991 80.743 8.76777C81.0516 9.49562 81.2098 10.2986 81.2177 11.1768V18.4277H78.7256V11.5447C78.7256 10.619 78.5436 9.89515 78.1797 9.37299C77.8158 8.84293 77.1987 8.57789 76.3284 8.57789C75.7034 8.57789 75.1694 8.73217 74.7264 9.04071C74.2912 9.34926 73.9629 9.77648 73.7414 10.3224C73.5199 10.8603 73.4091 11.4774 73.4091 12.1737V18.4277H70.917V1.65932Z" fill="#F5F5F5"/>
<path d="M84.1494 6.57234H86.6771V8.23374C87.0648 7.62456 87.583 7.15778 88.2317 6.83342C88.8884 6.50905 89.5925 6.34686 90.3441 6.34686C91.3884 6.34686 92.2942 6.62376 93.0617 7.17756C93.8291 7.73137 94.4106 8.479 94.8061 9.42046C95.2096 10.354 95.4114 11.3825 95.4114 12.5059C95.4114 13.6294 95.2096 14.6618 94.8061 15.6033C94.4106 16.5368 93.8251 17.2805 93.0498 17.8343C92.2824 18.3802 91.3686 18.6531 90.3085 18.6531C89.5569 18.6531 88.8607 18.4949 88.2198 18.1785C87.579 17.8541 87.0648 17.3834 86.6771 16.7663V23.3407H84.1494V6.57234ZM89.7388 16.4221C90.435 16.4221 91.0205 16.252 91.4952 15.9118C91.9778 15.5716 92.3378 15.1048 92.5751 14.5115C92.8124 13.9181 92.9311 13.2496 92.9311 12.5059C92.9311 11.7543 92.8124 11.0858 92.5751 10.5004C92.3378 9.91493 91.9778 9.45606 91.4952 9.12378C91.0205 8.78359 90.435 8.61349 89.7388 8.61349C89.0426 8.61349 88.4453 8.78359 87.9469 9.12378C87.4564 9.45606 87.0845 9.91493 86.8314 10.5004C86.5782 11.0858 86.4516 11.7543 86.4516 12.5059C86.4516 13.2496 86.5782 13.9181 86.8314 14.5115C87.0845 15.1048 87.4564 15.5716 87.9469 15.9118C88.4453 16.252 89.0426 16.4221 89.7388 16.4221Z" fill="#F5F5F5"/>
<path d="M101.939 6.34686C102.975 6.34686 103.869 6.5486 104.621 6.95209C105.372 7.35557 105.946 7.9252 106.342 8.66096C106.737 9.38882 106.935 10.2393 106.935 11.2124V18.4277H104.906L104.739 16.5764C104.36 17.2409 103.81 17.7552 103.09 18.1191C102.378 18.4751 101.63 18.6531 100.847 18.6531C100.032 18.6531 99.3043 18.5028 98.6634 18.2022C98.0226 17.9016 97.5202 17.4664 97.1563 16.8968C96.7924 16.3193 96.6104 15.6389 96.6104 14.8556C96.6104 13.6531 97.0376 12.7828 97.8921 12.2449C98.7465 11.7069 99.9174 11.4379 101.405 11.4379H104.704C104.688 10.7338 104.593 10.1721 104.419 9.75274C104.245 9.32553 103.96 9.00907 103.565 8.80337C103.177 8.59767 102.639 8.49482 101.951 8.49482C101.278 8.49482 100.689 8.65305 100.182 8.96951C99.684 9.28597 99.2726 9.71319 98.9483 10.2512L97.0732 8.89831C97.6745 8.0676 98.3628 7.43469 99.1381 6.99956C99.9214 6.56442 100.855 6.34686 101.939 6.34686ZM101.334 16.5645C101.951 16.5645 102.497 16.43 102.971 16.161C103.454 15.892 103.841 15.5321 104.134 15.0811C104.427 14.6302 104.617 14.1317 104.704 13.5858V13.218H101.547C100.756 13.218 100.155 13.3762 99.7434 13.6927C99.332 14.0012 99.1263 14.4126 99.1263 14.9268C99.1263 15.4253 99.3161 15.8248 99.6959 16.1254C100.076 16.4182 100.622 16.5645 101.334 16.5645Z" fill="#F5F5F5"/>
<path d="M114.008 6.34686C115.045 6.34686 115.939 6.5486 116.69 6.95209C117.442 7.35557 118.015 7.9252 118.411 8.66096C118.806 9.38882 119.004 10.2393 119.004 11.2124V18.4277H116.975L116.809 16.5764C116.429 17.2409 115.879 17.7552 115.159 18.1191C114.447 18.4751 113.7 18.6531 112.916 18.6531C112.102 18.6531 111.374 18.5028 110.733 18.2022C110.092 17.9016 109.59 17.4664 109.226 16.8968C108.862 16.3193 108.68 15.6389 108.68 14.8556C108.68 13.6531 109.107 12.7828 109.961 12.2449C110.816 11.7069 111.987 11.4379 113.474 11.4379H116.773C116.757 10.7338 116.662 10.1721 116.488 9.75274C116.314 9.32553 116.03 9.00907 115.634 8.80337C115.246 8.59767 114.708 8.49482 114.02 8.49482C113.348 8.49482 112.758 8.65305 112.252 8.96951C111.753 9.28597 111.342 9.71319 111.018 10.2512L109.143 8.89831C109.744 8.0676 110.432 7.43469 111.208 6.99956C111.991 6.56442 112.924 6.34686 114.008 6.34686ZM113.403 16.5645C114.02 16.5645 114.566 16.43 115.041 16.161C115.523 15.892 115.911 15.5321 116.204 15.0811C116.496 14.6302 116.686 14.1317 116.773 13.5858V13.218H113.617C112.825 13.218 112.224 13.3762 111.813 13.6927C111.401 14.0012 111.196 14.4126 111.196 14.9268C111.196 15.4253 111.386 15.8248 111.765 16.1254C112.145 16.4182 112.691 16.5645 113.403 16.5645Z" fill="#F5F5F5"/>
<path d="M125.817 18.6531C124.701 18.6531 123.831 18.3406 123.206 17.7156C122.589 17.0906 122.28 16.2283 122.28 15.1286V8.63723H120.334V6.57234H122.316V3.46313L124.725 1.70679V6.57234H127.81V8.63723H124.725V14.7132C124.725 15.3461 124.855 15.8011 125.116 16.078C125.377 16.3469 125.753 16.4814 126.244 16.4814C126.718 16.4814 127.237 16.3549 127.798 16.1017L127.81 18.3209C127.573 18.4079 127.272 18.483 126.908 18.5463C126.544 18.6175 126.18 18.6531 125.817 18.6531Z" fill="#F5F5F5"/>
<path d="M129.674 1.65932H132.166V8.16254C132.585 7.56127 133.103 7.11032 133.721 6.80968C134.338 6.50113 134.99 6.34686 135.679 6.34686C136.628 6.34686 137.423 6.56838 138.064 7.01142C138.713 7.45446 139.191 8.03991 139.5 8.76777C139.808 9.49562 139.967 10.2986 139.975 11.1768V18.4277H137.482V11.5447C137.482 10.619 137.3 9.89515 136.937 9.37299C136.573 8.84293 135.956 8.57789 135.085 8.57789C134.46 8.57789 133.926 8.73217 133.483 9.04071C133.048 9.34926 132.72 9.77648 132.498 10.3224C132.277 10.8603 132.166 11.4774 132.166 12.1737V18.4277H129.674V1.65932Z" fill="#F5F5F5"/>
<path d="M146.431 18.6531C145.64 18.6531 144.904 18.5107 144.223 18.2259C143.551 17.9332 142.977 17.5416 142.503 17.0511C142.036 16.5526 141.704 15.9988 141.506 15.3897L143.476 14.5234C143.689 15.1088 144.026 15.6033 144.485 16.0068C144.943 16.4023 145.553 16.6001 146.312 16.6001C146.787 16.6001 147.186 16.521 147.511 16.3628C147.843 16.2045 148.092 15.9988 148.258 15.7457C148.424 15.4925 148.508 15.2235 148.508 14.9387C148.508 14.6143 148.401 14.3533 148.187 14.1555C147.974 13.9498 147.705 13.7876 147.38 13.6689C147.056 13.5502 146.605 13.4158 146.027 13.2654C145.228 13.0597 144.576 12.854 144.069 12.6483C143.571 12.4347 143.14 12.1104 142.776 11.6752C142.42 11.2322 142.242 10.6388 142.242 9.89515C142.242 9.13565 142.436 8.49087 142.823 7.9608C143.211 7.42282 143.729 7.01933 144.378 6.75034C145.027 6.48135 145.743 6.34686 146.526 6.34686C147.507 6.34686 148.373 6.56838 149.125 7.01142C149.876 7.45446 150.474 8.07947 150.917 8.88644L149.018 9.91889C148.424 8.83502 147.566 8.29308 146.443 8.29308C145.881 8.29308 145.43 8.41571 145.09 8.66096C144.758 8.89831 144.591 9.2029 144.591 9.57474C144.591 9.85164 144.69 10.085 144.888 10.2749C145.094 10.4569 145.351 10.6072 145.659 10.7259C145.968 10.8366 146.391 10.9672 146.929 11.1175C147.76 11.3469 148.44 11.5803 148.97 11.8176C149.5 12.0471 149.955 12.4031 150.335 12.8857C150.723 13.3683 150.917 14.0131 150.917 14.82C150.917 15.6587 150.707 16.3667 150.288 16.9443C149.868 17.5139 149.318 17.9411 148.638 18.2259C147.958 18.5107 147.222 18.6531 146.431 18.6531Z" fill="#F5F5F5"/>
<path d="M153.291 1.65932H155.783V8.16254C156.202 7.56127 156.72 7.11032 157.337 6.80968C157.954 6.50113 158.607 6.34686 159.295 6.34686C160.245 6.34686 161.04 6.56838 161.681 7.01142C162.329 7.45446 162.808 8.03991 163.117 8.76777C163.425 9.49562 163.583 10.2986 163.591 11.1768V18.4277H161.099V11.5447C161.099 10.619 160.917 9.89515 160.553 9.37299C160.189 8.84293 159.572 8.57789 158.702 8.57789C158.077 8.57789 157.543 8.73217 157.1 9.04071C156.665 9.34926 156.336 9.77648 156.115 10.3224C155.893 10.8603 155.783 11.4774 155.783 12.1737V18.4277H153.291V1.65932Z" fill="#F5F5F5"/>
<path d="M170.748 6.34686C171.784 6.34686 172.678 6.5486 173.43 6.95209C174.181 7.35557 174.755 7.9252 175.15 8.66096C175.546 9.38882 175.744 10.2393 175.744 11.2124V18.4277H173.714L173.548 16.5764C173.169 17.2409 172.619 17.7552 171.899 18.1191C171.187 18.4751 170.439 18.6531 169.656 18.6531C168.841 18.6531 168.113 18.5028 167.472 18.2022C166.831 17.9016 166.329 17.4664 165.965 16.8968C165.601 16.3193 165.419 15.6389 165.419 14.8556C165.419 13.6531 165.846 12.7828 166.701 12.2449C167.555 11.7069 168.726 11.4379 170.214 11.4379H173.513C173.497 10.7338 173.402 10.1721 173.228 9.75274C173.054 9.32553 172.769 9.00907 172.373 8.80337C171.986 8.59767 171.448 8.49482 170.76 8.49482C170.087 8.49482 169.498 8.65305 168.991 8.96951C168.493 9.28597 168.081 9.71319 167.757 10.2512L165.882 8.89831C166.483 8.0676 167.172 7.43469 167.947 6.99956C168.73 6.56442 169.664 6.34686 170.748 6.34686ZM170.142 16.5645C170.759 16.5645 171.305 16.43 171.78 16.161C172.263 15.892 172.65 15.5321 172.943 15.0811C173.236 14.6302 173.426 14.1317 173.513 13.5858V13.218H170.356C169.565 13.218 168.964 13.3762 168.552 13.6927C168.141 14.0012 167.935 14.4126 167.935 14.9268C167.935 15.4253 168.125 15.8248 168.505 16.1254C168.884 16.4182 169.43 16.5645 170.142 16.5645Z" fill="#F5F5F5"/>
<path d="M180.954 18.6531C180.179 18.6531 179.585 18.4514 179.174 18.0479C178.77 17.6365 178.569 16.9601 178.569 16.0186V1.65932H181.013V15.3541C181.013 15.7101 181.096 15.983 181.262 16.1729C181.429 16.3549 181.702 16.4458 182.081 16.4458C182.279 16.4458 182.564 16.4182 182.936 16.3628L182.948 18.4277C182.212 18.578 181.547 18.6531 180.954 18.6531Z" fill="#F5F5F5"/>
<path d="M189.048 6.34686C190.084 6.34686 190.978 6.5486 191.73 6.95209C192.481 7.35557 193.055 7.9252 193.451 8.66096C193.846 9.38882 194.044 10.2393 194.044 11.2124V18.4277H192.015L191.848 16.5764C191.469 17.2409 190.919 17.7552 190.199 18.1191C189.487 18.4751 188.739 18.6531 187.956 18.6531C187.141 18.6531 186.413 18.5028 185.772 18.2022C185.132 17.9016 184.629 17.4664 184.265 16.8968C183.901 16.3193 183.719 15.6389 183.719 14.8556C183.719 13.6531 184.147 12.7828 185.001 12.2449C185.856 11.7069 187.026 11.4379 188.514 11.4379H191.813C191.797 10.7338 191.702 10.1721 191.528 9.75274C191.354 9.32553 191.069 9.00907 190.674 8.80337C190.286 8.59767 189.748 8.49482 189.06 8.49482C188.387 8.49482 187.798 8.65305 187.291 8.96951C186.793 9.28597 186.382 9.71319 186.057 10.2512L184.182 8.89831C184.784 8.0676 185.472 7.43469 186.247 6.99956C187.03 6.56442 187.964 6.34686 189.048 6.34686ZM188.443 16.5645C189.06 16.5645 189.606 16.43 190.08 16.161C190.563 15.892 190.951 15.5321 191.243 15.0811C191.536 14.6302 191.726 14.1317 191.813 13.5858V13.218H188.656C187.865 13.218 187.264 13.3762 186.852 13.6927C186.441 14.0012 186.235 14.4126 186.235 14.9268C186.235 15.4253 186.425 15.8248 186.805 16.1254C187.185 16.4182 187.731 16.5645 188.443 16.5645Z" fill="#F5F5F5"/>
<path d="M196.069 17.7208C196.069 17.4394 196.118 17.1774 196.215 16.9348C196.322 16.6825 196.464 16.4642 196.639 16.2798C196.824 16.0954 197.038 15.9499 197.282 15.8432C197.535 15.7364 197.803 15.683 198.085 15.683C198.367 15.683 198.63 15.7364 198.874 15.8432C199.127 15.9499 199.346 16.0954 199.531 16.2798C199.716 16.4642 199.862 16.6825 199.969 16.9348C200.077 17.1774 200.13 17.4394 200.13 17.7208C200.13 18.0119 200.077 18.2788 199.969 18.5213C199.862 18.7639 199.716 18.9774 199.531 19.1618C199.346 19.3461 199.127 19.4868 198.874 19.5839C198.63 19.6906 198.367 19.744 198.085 19.744C197.803 19.744 197.535 19.6906 197.282 19.5839C197.038 19.4868 196.824 19.3461 196.639 19.1618C196.464 18.9774 196.322 18.7639 196.215 18.5213C196.118 18.2788 196.069 18.0119 196.069 17.7208Z" fill="#F3BD00"/>
</svg>
